<svg preserveAspectRatio="none" width="1920" height="343" viewBox="0 0 1920 343" fill="none" xmlns="http://www.w3.org/2000/svg">
<path d="M1920 298.593L1856 295.632C1792 292.544 1664 286.623 1536 280.574C1408 274.525 1280 268.605 1152 264.872C1024 261.269 896 259.982 768 276.713C640 293.445 512 328.195 384 338.877C256 349.688 128 336.303 64 329.739L-1.74027e-06 323.046L-3.00944e-05 -1.28688L64 -1.28689C128 -1.28689 256 -1.2869 384 -1.28691C512 -1.28693 640 -1.28694 768 -1.28695C896 -1.28696 1024 -1.28697 1152 -1.28698C1280 -1.28699 1408 -1.287 1536 -1.28701C1664 -1.28703 1792 -1.28704 1856 -1.28704L1920 -1.28705L1920 298.593Z" fill="#FFB973"/>
<path d="M1920 244.537L1856 249.943C1792 255.219 1664 266.031 1536 266.031C1408 266.031 1280 255.22 1152 246.725C1024 238.102 896 231.667 768 234.498C640 237.201 512 249.299 384 249.943C256 250.586 128 239.775 64 234.498L-3.22922e-06 229.093L-2.33696e-05 -1.28685L64 -1.28686C128 -1.28686 256 -1.28687 384 -1.28688C512 -1.28689 640 -1.28691 768 -1.28692C896 -1.28693 1024 -1.28694 1152 -1.28695C1280 -1.28696 1408 -1.28697 1536 -1.28698C1664 -1.287 1792 -1.28701 1856 -1.28701L1920 -1.28702L1920 244.537Z" fill="#FFAC5B"/>
<path d="M1920 169.889L1856 173.75C1792 177.611 1664 185.333 1536 191.769C1408 198.204 1280 203.352 1152 208.886C1024 214.549 896 220.47 768 223.301C640 226.133 512 225.618 384 221.628C256 217.509 128 209.787 64 205.926L-2.01277e-06 202.065L-1.97904e-05 -1.28687L64 -1.28687C128 -1.28688 256 -1.28689 384 -1.2869C512 -1.28691 640 -1.28692 768 -1.28693C896 -1.28694 1024 -1.28695 1152 -1.28697C1280 -1.28698 1408 -1.28699 1536 -1.287C1664 -1.28701 1792 -1.28702 1856 -1.28703L1920 -1.28703L1920 169.889Z" fill="#FF9E43"/>
<path d="M1920 166.028L1856 157.276C1792 148.395 1664 130.892 1536 122.269C1408 113.645 1280 114.16 1152 119.952C1024 125.744 896 136.812 768 140.545C640 144.148 512 140.287 384 136.169C256 132.179 128 127.803 64 125.744L-3.71304e-06 123.556L-1.46271e-05 -1.28688L64 -1.28689C128 -1.28689 256 -1.2869 384 -1.28691C512 -1.28693 640 -1.28694 768 -1.28695C896 -1.28696 1024 -1.28697 1152 -1.28698C1280 -1.28699 1408 -1.287 1536 -1.28701C1664 -1.28703 1792 -1.28704 1856 -1.28704L1920 -1.28705L1920 166.028Z" fill="#FF9029"/>
<path d="M1920 102.963L1856 101.418C1792 100.003 1664 96.9139 1536 92.4093C1408 87.9046 1280 81.9843 1152 76.3213C1024 70.7871 896 65.639 768 62.6788C640 59.5899 512 58.8177 384 62.0353C256 65.2529 128 72.4603 64 76.1928L-2.02529e-06 79.7965L-9.11382e-06 -1.28688L64 -1.28689C128 -1.28689 256 -1.2869 384 -1.28691C512 -1.28693 640 -1.28694 768 -1.28695C896 -1.28696 1024 -1.28697 1152 -1.28698C1280 -1.28699 1408 -1.287 1536 -1.28701C1664 -1.28703 1792 -1.28704 1856 -1.28704L1920 -1.28705L1920 102.963Z" fill="#FF8000"/>
</svg>
