<svg preserveAspectRatio="none" width="1920" height="198" viewBox="0 0 1920 198" fill="none" xmlns="http://www.w3.org/2000/svg">
<path d="M0 0L45.6 2.5C91.4 5 182.6 9.99999 274 13.8C365.4 17.7 456.6 20.3 548 19.3C639.4 18.3 730.6 13.7 822.4 12.2C914 10.7 1006 12.3 1097.6 18C1189.4 23.7 1280.6 33.3 1372 34.8C1463.4 36.3 1554.6 29.7 1646 29.5C1737.4 29.3 1828.6 35.7 1874.4 38.8L1920 42V198H1874.4C1828.6 198 1737.4 198 1646 198C1554.6 198 1463.4 198 1372 198C1280.6 198 1189.4 198 1097.6 198C1006 198 914 198 822.4 198C730.6 198 639.4 198 548 198C456.6 198 365.4 198 274 198C182.6 198 91.4 198 45.6 198H0V0Z" fill="#1A140D"/>
<path d="M0 51L45.6 52.8C91.4 54.7 182.6 58.3 274 63.8C365.4 69.3 456.6 76.7 548 80.8C639.4 85 730.6 86 822.4 87.5C914 89 1006 91 1097.6 86.7C1189.4 82.3 1280.6 71.7 1372 69.8C1463.4 68 1554.6 75 1646 79.2C1737.4 83.3 1828.6 84.7 1874.4 85.3L1920 86V198H1874.4C1828.6 198 1737.4 198 1646 198C1554.6 198 1463.4 198 1372 198C1280.6 198 1189.4 198 1097.6 198C1006 198 914 198 822.4 198C730.6 198 639.4 198 548 198C456.6 198 365.4 198 274 198C182.6 198 91.4 198 45.6 198H0V51Z" fill="#1E1913"/>
<path d="M0 121.945H45.6C91.4 121.945 182.6 121.945 274 122.746C365.4 123.647 456.6 125.248 548 127.95C639.4 130.652 730.6 134.254 822.4 131.252C914 128.25 1006 118.643 1097.6 113.94C1189.4 109.236 1280.6 109.637 1372 110.637C1463.4 111.638 1554.6 113.239 1646 116.141C1737.4 118.943 1828.6 122.946 1874.4 124.948L1920 126.949V198H1874.4C1828.6 198 1737.4 198 1646 198C1554.6 198 1463.4 198 1372 198C1280.6 198 1189.4 198 1097.6 198C1006 198 914 198 822.4 198C730.6 198 639.4 198 548 198C456.6 198 365.4 198 274 198C182.6 198 91.4 198 45.6 198H0V121.945Z" fill="#231D18"/>
</svg>
