<svg width="32" height="26" viewBox="0 0 32 26" fill="none" xmlns="http://www.w3.org/2000/svg">
<path d="M30.4375 5.28125V20.5938C30.4375 21.464 30.0918 22.2986 29.4764 22.9139C28.8611 23.5293 28.0265 23.875 27.1563 23.875H5.28125C4.41101 23.875 3.57641 23.5293 2.96106 22.9139C2.3457 22.2986 2 21.464 2 20.5938V5.28125M30.4375 5.28125C30.4375 4.41101 30.0918 3.57641 29.4764 2.96106C28.8611 2.3457 28.0265 2 27.1563 2H5.28125C4.41101 2 3.57641 2.3457 2.96106 2.96106C2.3457 3.57641 2 4.41101 2 5.28125M30.4375 5.28125V5.63563C30.4376 6.19584 30.2942 6.74674 30.021 7.23585C29.7479 7.72496 29.3541 8.13599 28.8771 8.42979L17.9396 15.16C17.4222 15.4787 16.8264 15.6474 16.2188 15.6474C15.6111 15.6474 15.0153 15.4787 14.4979 15.16L3.56042 8.43125C3.08343 8.13745 2.6896 7.72642 2.41645 7.23731C2.14331 6.7482 1.99994 6.1973 2 5.63708V5.28125" stroke="black" stroke-width="2.5" stroke-linecap="round" stroke-linejoin="round"/>
</svg>
